# File created by Blade
# Date/Time:  Wed Jan 21 14:55:15 2015
# Frame Rate: 120.000 fps
#------------------------------------------------------
:FULLY-SPECIFIED
:DEGREES
601
root 19.756432 17.326283 -20.044154 -98.917123 80.395338 -129.839324
Spine 36.036143 -4.564146 8.170112
Head -7.376762 -3.754515 0.571127
LeftShoulder -15.359585 -41.904673 24.550252
LeftArm -29.013169 -1.710534 -13.221995
LeftForeArm -5.737151 -0.000000 1.569194
LeftHand -12.636836 -0.000000 4.104431
LeftHandThumb1 -26.253704 0.000000 33.147579
RightShoulder -9.904753 3.998183 -17.452853
RightArm -20.664232 41.649240 18.975855
RightForeArm -30.244297 -0.000000 11.952703
RightHand -14.976108 -0.000000 -5.238814
RightHandThumb1 -24.326973 -0.000000 -32.862282
LeftUpLeg -1.872240 12.604935 5.075715
LeftLeg 72.805944 -0.000000 -0.000000
LeftFoot -20.034750 14.505232 -13.794199
LeftToeBase -71.819786 -0.000000 0.000000
RightUpLeg -118.727084 15.786872 6.673252
RightLeg 111.546231 -0.000000 -0.000000
RightFoot -41.487005 -27.342060 13.917592
RightToeBase 21.651309 -0.000000 -0.000000
602
root 19.755238 17.327056 -20.044870 -98.883202 80.404087 -129.846581
Spine 36.152697 -4.562323 8.157263
Head -7.240150 -3.755243 0.491633
LeftShoulder -15.328095 -41.904902 24.543528
LeftArm -29.088794 -1.718616 -13.218773
LeftForeArm -5.744279 -0.000000 1.560581
LeftHand -12.643120 -0.000000 4.010111
LeftHandThumb1 -26.253704 0.000000 33.147579
RightShoulder -9.867711 4.027902 -17.471277
RightArm -20.681113 41.579415 18.989613
RightForeArm -30.252116 -0.000000 11.966114
RightHand -14.948577 -0.000000 -5.268999
RightHandThumb1 -24.326973 -0.000000 -32.862282
LeftUpLeg -1.912796 12.615419 5.054703
LeftLeg 72.779837 -0.000000 -0.000000
LeftFoot -20.015582 14.526575 -13.754057
LeftToeBase -72.670445 -0.000000 0.000000
RightUpLeg -118.766290 15.774542 6.676280
RightLeg 111.546764 -0.000000 -0.000000
RightFoot -41.485820 -27.306019 13.924733
RightToeBase 21.675074 -0.000000 -0.000000
603
root 19.753298 17.326081 -20.045067 -98.757386 80.419554 -129.754331
Spine 36.261934 -4.520608 8.148628
Head -7.110925 -3.771381 0.460007
LeftShoulder -15.291252 -41.930659 24.555775
LeftArm -29.159165 -1.716659 -13.227158
LeftForeArm -5.789252 -0.000000 1.552762
LeftHand -12.570103 -0.000000 4.104790
LeftHandThumb1 -26.253704 0.000000 33.147579
RightShoulder -9.842668 3.970754 -17.476162
RightArm -20.680287 41.599839 19.007521
RightForeArm -30.264107 0.000000 11.943877
RightHand -14.890778 0.000000 -5.345408
RightHandThumb1 -24.326973 -0.000000 -32.862282
LeftUpLeg -1.942201 12.641375 5.034386
LeftLeg 72.768038 -0.000000 -0.000000
LeftFoot -20.011886 14.556179 -13.792916
LeftToeBase -72.232079 -0.000000 0.000000
RightUpLeg -118.799701 15.783000 6.685818
RightLeg 111.543845 -0.000000 -0.000000
RightFoot -41.496437 -27.352049 13.793983
RightToeBase 22.000420 -0.000000 -0.000000
604
root 19.751201 17.326147 -20.045117 -98.647701 80.447573 -129.689472
Spine 36.366603 -4.504270 8.107311
Head -7.006566 -3.710412 0.413325
LeftShoulder -15.288237 -41.937388 24.566896
LeftArm -29.224869 -1.826671 -13.157156
LeftForeArm -5.644695 0.000000 1.556937
LeftHand -12.597888 -0.000000 4.054414
LeftHandThumb1 -26.253704 0.000000 33.147579
RightShoulder -9.831393 3.972879 -17.477951
RightArm -20.682565 41.614667 19.015337
RightForeArm -30.372622 -0.000000 12.009216
RightHand -15.113294 -0.000000 -5.033667
RightHandThumb1 -24.326973 -0.000000 -32.862282
LeftUpLeg -1.984266 12.678718 4.998064
LeftLeg 72.754643 -0.000000 -0.000000
LeftFoot -20.014876 14.573778 -13.812885
LeftToeBase -71.851626 -0.000000 0.000000
RightUpLeg -118.846697 15.787633 6.677228
RightLeg 111.538617 -0.000000 -0.000000
RightFoot -41.486072 -27.348823 13.779505
RightToeBase 22.047481 -0.000000 -0.000000
605
root 19.751145 17.326078 -20.045871 -98.530604 80.470773 -129.608919
Spine 36.459674 -4.486488 8.079239
Head -6.858560 -3.635506 0.360859
LeftShoulder -15.274557 -41.872671 24.531066
LeftArm -29.236549 -1.738440 -13.231643
LeftForeArm -5.868706 -0.000000 1.550263
LeftHand -12.617596 -0.000000 3.990490
LeftHandThumb1 -26.253704 0.000000 33.147579
RightShoulder -9.776420 3.999598 -17.483458
RightArm -20.713207 41.466002 19.017225
RightForeArm -30.208421 -0.000000 12.015401
RightHand -14.998126 -0.000000 -5.255651
RightHandThumb1 -24.326973 -0.000000 -32.862282
LeftUpLeg -2.012082 12.710485 4.964756
LeftLeg 72.718876 -0.000000 -0.000000
LeftFoot -20.006915 14.641036 -13.815620
LeftToeBase -72.253526 -0.000000 0.000000
RightUpLeg -118.881171 15.786296 6.678065
RightLeg 111.540487 -0.000000 -0.000000
RightFoot -41.496662 -27.299752 13.825967
RightToeBase 21.892896 -0.000000 -0.000000
606
root 19.749950 17.324751 -20.045979 -98.392018 80.504825 -129.509027
Spine 36.551783 -4.436635 8.047074
Head -6.753019 -3.649963 0.323931
LeftShoulder -15.257754 -41.772246 24.518663
LeftArm -29.234521 -1.792015 -13.300059
LeftForeArm -5.981617 0.000000 1.532682
LeftHand -12.588784 -0.000000 4.037876
LeftHandThumb1 -26.253704 0.000000 33.147579
RightShoulder -9.772967 3.931952 -17.464233
RightArm -20.678891 41.483720 19.037367
RightForeArm -30.245732 -0.000000 12.014407
RightHand -15.134013 -0.000000 -5.222085
RightHandThumb1 -24.326973 -0.000000 -32.862282
LeftUpLeg -2.043272 12.756849 4.926089
LeftLeg 72.702721 -0.000000 -0.000000
LeftFoot -19.987581 14.663764 -13.832189
LeftToeBase -72.278283 -0.000000 0.000000
RightUpLeg -118.918754 15.788851 6.664103
RightLeg 111.537703 -0.000000 -0.000000
RightFoot -41.513868 -27.272096 13.802554
RightToeBase 21.947217 -0.000000 -0.000000
607
root 19.751466 17.323286 -20.044510 -98.143416 80.528291 -129.274731
Spine 36.673791 -4.396634 8.019911
Head -6.663380 -3.651320 0.270996
LeftShoulder -15.263263 -41.684226 24.500478
LeftArm -29.241554 -1.908341 -13.299314
LeftForeArm -6.015562 -0.000000 1.524917
LeftHand -12.672214 -0.000000 3.923445
LeftHandThumb1 -26.253704 0.000000 33.147579
RightShoulder -9.771525 3.963302 -17.499112
RightArm -20.661282 41.474476 19.080345
RightForeArm -30.273911 -0.000000 11.968175
RightHand -15.104863 -0.000000 -5.414147
RightHandThumb1 -24.326973 -0.000000 -32.862282
LeftUpLeg -2.038649 12.812290 4.910829
LeftLeg 72.665734 -0.000000 -0.000000
LeftFoot -19.973370 14.695263 -13.819553
LeftToeBase -72.663650 -0.000000 0.000000
RightUpLeg -118.913800 15.815279 6.678928
RightLeg 111.527546 -0.000000 -0.000000
RightFoot -41.560170 -27.272438 13.789546
RightToeBase 22.004551 -0.000000 -0.000000
608
root 19.752085 17.323223 -20.044879 -98.019053 80.563943 -129.194675
Spine 36.749782 -4.360331 7.987897
Head -6.572081 -3.568571 0.238332
LeftShoulder -15.283063 -41.682023 24.500012
LeftArm -29.252651 -1.926697 -13.317661
LeftForeArm -6.080849 -0.000000 1.510878
LeftHand -12.564663 -0.000000 4.098527
LeftHandThumb1 -26.253704 0.000000 33.147579
RightShoulder -9.759972 4.047285 -17.503895
RightArm -20.714076 41.300644 19.064061
RightForeArm -30.248695 0.000000 12.025296
RightHand -15.188853 -0.000000 -5.471949
RightHandThumb1 -24.326973 -0.000000 -32.862282
LeftUpLeg -2.075288 12.843330 4.863212
LeftLeg 72.639573 -0.000000 -0.000000
LeftFoot -19.967292 14.737253 -13.840628
LeftToeBase -72.704699 -0.000000 0.000000
RightUpLeg -118.951897 15.805052 6.666082
RightLeg 111.526915 -0.000000 -0.000000
RightFoot -41.598046 -27.163245 13.921011
RightToeBase 21.904986 -0.000000 -0.000000
609
root 19.753831 17.321831 -20.043569 -97.832088 80.581991 -129.016055
Spine 36.861988 -4.312746 7.970411
Head -6.465330 -3.590436 0.224693
LeftShoulder -15.296801 -41.714258 24.563105
LeftArm -29.334892 -1.966443 -13.350647
LeftForeArm -6.056573 -0.000000 1.519779
LeftHand -12.607516 -0.000000 3.930422
LeftHandThumb1 -26.253704 0.000000 33.147579
RightShoulder -9.756944 3.970032 -17.473841
RightArm -20.663060 41.328310 19.075100
RightForeArm -30.185668 -0.000000 11.998238
RightHand -15.126215 -0.000000 -5.524223
RightHandThumb1 -24.326973 -0.000000 -32.862282
LeftUpLeg -2.070020 12.891460 4.854304
LeftLeg 72.623938 -0.000000 -0.000000
LeftFoot -19.934237 14.757727 -13.853567
LeftToeBase -72.322812 -0.000000 0.000000
RightUpLeg -118.939565 15.815232 6.692449
RightLeg 111.524486 -0.000000 -0.000000
RightFoot -41.677094 -27.120995 13.984253
RightToeBase 21.847436 -0.000000 -0.000000
610
root 19.756378 17.320656 -20.042292 -97.706522 80.595892 -128.914605
Spine 36.951153 -4.309372 7.943137
Head -6.383276 -3.563481 0.187897
LeftShoulder -15.300076 -41.625142 24.539351
LeftArm -29.379400 -2.041950 -13.358488
LeftForeArm -6.176737 0.000000 1.540645
LeftHand -12.501552 -0.000000 3.927111
LeftHandThumb1 -26.253704 0.000000 33.147579
RightShoulder -9.769035 4.001209 -17.485428
RightArm -20.597601 41.291252 19.119278
RightForeArm -30.218754 0.000000 11.987726
RightHand -15.121910 0.000000 -5.602988
RightHandThumb1 -24.326973 -0.000000 -32.862282
LeftUpLeg -2.083338 12.918352 4.839698
LeftLeg 72.598866 -0.000000 -0.000000
LeftFoot -19.917185 14.795706 -13.876172
LeftToeBase -72.372069 -0.000000 0.000000
RightUpLeg -118.950528 15.804564 6.692808
RightLeg 111.523441 -0.000000 -0.000000
RightFoot -41.768803 -27.045153 14.054845
RightToeBase 21.997412 -0.000000 -0.000000
611
root 19.758366 17.320520 -20.041283 -97.613563 80.620311 -128.875889
Spine 36.992609 -4.322759 7.901108
Head -6.273890 -3.480891 0.146029
LeftShoulder -15.308530 -41.541814 24.498108
LeftArm -29.399358 -2.101853 -13.341744
LeftForeArm -6.212481 -0.000000 1.505807
LeftHand -12.439771 -0.000000 3.841421
LeftHandThumb1 -26.253704 0.000000 33.147579
RightShoulder -9.729717 4.119907 -17.523678
RightArm -20.659887 41.184617 19.109139
RightForeArm -30.230705 0.000000 12.025690
RightHand -15.213929 -0.000000 -5.586493
RightHandThumb1 -24.326973 -0.000000 -32.862282
LeftUpLeg -2.130132 12.942062 4.807601
LeftLeg 72.572941 -0.000000 -0.000000
LeftFoot -19.897629 14.814451 -13.883602
LeftToeBase -72.564824 -0.000000 0.000000
RightUpLeg -118.990858 15.792267 6.697104
RightLeg 111.538221 -0.000000 -0.000000
RightFoot -41.831896 -26.877633 14.243683
RightToeBase 21.867441 -0.000000 -0.000000
